<svg version="1.0" xmlns="http://www.w3.org/2000/svg"
 width="860px" style="transform:scale(1,1.001);" height="483.75px" viewBox="0 0 320.000000 180.000000"
 preserveAspectRatio="xMidYMid meet">
<g transform="translate(0.000000,180.000000) scale(0.100000,-0.100000)"
fill="#000000" stroke="none">
<path d="M0 905 l0 -895 281 0 282 0 -9 37 c-4 21 -8 70 -8 108 -1 56 4 81 26 125 15
30 30 70 33 88 12 58 72 176 107 208 18 16 65 45 103 63 73 34 83 40 126 69
34 22 99 100 99 117 0 7 16 32 35 55 24 29 35 52 35 73 0 18 1 132 3 254 3
206 5 225 23 250 12 16 30 49 42 75 14 32 31 52 54 64 18 9 45 26 61 38 24 18
42 20 161 20 116 -1 137 -3 162 -21 16 -11 43 -25 61 -32 40 -16 67 -45 97
-105 34 -67 55 -282 37 -385 -10 -62 -9 -74 8 -115 11 -24 29 -54 40 -65 18
-18 21 -33 21 -111 0 -111 14 -143 67 -161 46 -15 78 -38 146 -106 73 -73 97
-107 113 -160 8 -26 20 -56 28 -68 8 -12 21 -45 30 -74 8 -29 25 -68 37 -88
18 -29 20 -43 15 -94 l-7 -59 446 0 445 0 0 895 0 895 -1600 0 -1600 0 0 -895z"/>
</g>
</svg>
